<?xml version="1.0" encoding="utf-8"?>
<!-- Generator: Adobe Illustrator 24.0.3, SVG Export Plug-In . SVG Version: 6.00 Build 0)  -->
<svg version="1.1" id="Layer_1" xmlns="http://www.w3.org/2000/svg" xmlns:xlink="http://www.w3.org/1999/xlink" x="0px" y="0px"
	 viewBox="0 0 20 20" style="enable-background:new 0 0 20 20;" xml:space="preserve">
<style type="text/css">
	.st0{fill:#FFFFFF;}
</style>
<g>
	<g id="XMLID_1_">
		<g>
			<rect class="st0" width="2.9" height="2.9"/>
			<rect x="17.1" class="st0" width="2.9" height="2.9"/>
		</g>
	</g>
</g>
<polygon class="st0" points="20,8.6 20,11.5 17.2,11.5 17.2,14.3 20,14.3 20,17.1 20,17.2 20,20 17.1,20 17.1,17.2 14.3,17.2 
	14.3,20 11.4,20 11.4,17.2 11.4,17.1 11.4,14.3 14.3,14.3 14.3,11.5 11.5,11.5 11.4,11.5 8.6,11.5 5.8,11.5 5.8,14.3 8.6,14.3 
	8.6,17.1 8.6,17.2 8.6,20 5.7,20 5.7,17.2 2.9,17.2 2.9,20 0,20 0,17.2 0,17.1 0,14.3 2.9,14.3 2.9,11.5 0,11.5 0,8.6 0,5.7 
	2.9,5.7 2.9,8.6 5.7,8.6 5.8,8.6 8.6,8.6 8.6,5.8 5.7,5.8 5.7,2.9 8.6,2.9 8.6,0 11.5,0 11.5,2.9 14.3,2.9 14.3,5.8 11.5,5.8 
	11.5,8.6 14.3,8.6 17.1,8.6 17.1,5.7 20,5.7 "/>
</svg>
